<svg class="dashed-line" width="314" height="10" viewBox="0 0 314 10" fill="none" xmlns="http://www.w3.org/2000/svg">
        <rect x="-10" y="0" width="20" height="10" rx="5" ry="5" fill="#fff"/>
        <rect x="16" y="0" width="20" height="10" rx="5" ry="5" fill="#fff"/>
        <rect x="42" y="0" width="20" height="10" rx="5" ry="5" fill="#fff"/>
        <rect x="68" y="0" width="20" height="10" rx="5" ry="5" fill="#fff"/>
        <rect x="94" y="0" width="20" height="10" rx="5" ry="5" fill="#fff"/>
        <rect x="120" y="0" width="20" height="10" rx="5" ry="5" fill="#fff"/>
        <rect x="146" y="0" width="20" height="10" rx="5" ry="5" fill="#fff"/>
        <rect x="172" y="0" width="20" height="10" rx="5" ry="5" fill="#fff"/>
        <rect x="198" y="0" width="20" height="10" rx="5" ry="5" fill="#fff"/>
        <rect x="224" y="0" width="20" height="10" rx="5" ry="5" fill="#fff"/>
        <rect x="250" y="0" width="20" height="10" rx="5" ry="5" fill="#fff"/>
        <rect x="276" y="0" width="20" height="10" rx="5" ry="5" fill="#fff"/>
        <rect x="302" y="0" width="20" height="10" rx="5" ry="5" fill="#fff"/>
    </svg>