<svg width="313.704895" height="174.806122" viewBox="0 0 313.705 174.806" fill="none" xmlns="http://www.w3.org/2000/svg" xmlns:xlink="http://www.w3.org/1999/xlink">
	<desc>
			Created with Pixso.
	</desc>
	<defs/>
	<path id="Форма 2" d="M313.7 0L0 0L0 47.83C0 47.83 34.23 50.19 34.23 85.04C34.23 119.88 0 124.01 0 124.01L0 174.8L313.7 174.8L313.7 124.01C313.7 124.01 278.29 120.17 278.29 85.04C278.29 49.9 313.7 47.83 313.7 47.83L313.7 0ZM312.7 1L312.7 46.9Q304.09 47.62 295.51 52.38Q287.79 56.66 283.34 63.18Q277.29 72.04 277.29 85.04Q277.29 97.65 282.99 106.65Q287.47 113.72 295.48 118.56Q304.07 123.76 312.7 124.9L312.7 173.8L1 173.8L1 124.89Q9.33 123.67 17.64 118.44Q25.09 113.75 29.38 107.04Q35.23 97.91 35.23 85.04Q35.23 71.77 29.02 62.79Q24.77 56.64 17.61 52.5Q9.32 47.71 1 46.91L1 1L312.7 1Z" fill="#FFFFFF" fill-opacity="1.000000" fill-rule="evenodd"/>
</svg>
